  0
SECTION
  2
BLOCKS
  0
ENDSEC
  0
SECTION
  2
ENTITIES
  0
LINE
  8
0
 10
-4
 20
-13
 11
-8.25
 21
-13
  0
LINE
  8
0
 10
-8.25
 20
-13
 11
-8.25
 21
-9.6642
  0
LINE
  8
0
 10
-8.25
 20
-9.6642
 11
-4.58578
 21
-6
  0
LINE
  8
0
 10
-4.58578
 20
-6
 11
4.58578
 21
-6
  0
LINE
  8
0
 10
4.58578
 20
-6
 11
8.25
 21
-9.6642
  0
LINE
  8
0
 10
8.25
 20
-9.6642
 11
8.25
 21
-13
  0
LINE
  8
0
 10
8.25
 20
-13
 11
4
 21
-13
  0
LINE
  8
0
 10
4
 20
-13
 11
4
 21
-15
  0
LINE
  8
0
 10
4
 20
-15
 11
13
 21
-15
  0
LINE
  8
0
 10
13
 20
-15
 11
13.5176
 21
-14.9318
  0
LINE
  8
0
 10
13.5176
 20
-14.9318
 11
14
 21
-14.732
  0
LINE
  8
0
 10
14
 20
-14.732
 11
14.4142
 21
-14.4142
  0
LINE
  8
0
 10
14.4142
 20
-14.4142
 11
14.732
 21
-14
  0
LINE
  8
0
 10
14.732
 20
-14
 11
14.9318
 21
-13.5176
  0
LINE
  8
0
 10
14.9318
 20
-13.5176
 11
15
 21
-13
  0
LINE
  8
0
 10
15
 20
-13
 11
15
 21
-4
  0
LINE
  8
0
 10
15
 20
-4
 11
13
 21
-4
  0
LINE
  8
0
 10
13
 20
-4
 11
13
 21
-8.25
  0
LINE
  8
0
 10
13
 20
-8.25
 11
9.6642
 21
-8.25
  0
LINE
  8
0
 10
9.6642
 20
-8.25
 11
6
 21
-4.58578
  0
LINE
  8
0
 10
6
 20
-4.58578
 11
6
 21
4.58578
  0
LINE
  8
0
 10
6
 20
4.58578
 11
9.6642
 21
8.25
  0
LINE
  8
0
 10
9.6642
 20
8.25
 11
13
 21
8.25
  0
LINE
  8
0
 10
13
 20
8.25
 11
13
 21
4
  0
LINE
  8
0
 10
13
 20
4
 11
15
 21
4
  0
LINE
  8
0
 10
15
 20
4
 11
15
 21
13
  0
LINE
  8
0
 10
15
 20
13
 11
14.9318
 21
13.5176
  0
LINE
  8
0
 10
14.9318
 20
13.5176
 11
14.732
 21
14
  0
LINE
  8
0
 10
14.732
 20
14
 11
14.4142
 21
14.4142
  0
LINE
  8
0
 10
14.4142
 20
14.4142
 11
14
 21
14.732
  0
LINE
  8
0
 10
14
 20
14.732
 11
13.5176
 21
14.9318
  0
LINE
  8
0
 10
13.5176
 20
14.9318
 11
13
 21
15
  0
LINE
  8
0
 10
13
 20
15
 11
4
 21
15
  0
LINE
  8
0
 10
4
 20
15
 11
4
 21
13
  0
LINE
  8
0
 10
4
 20
13
 11
8.25
 21
13
  0
LINE
  8
0
 10
8.25
 20
13
 11
8.25
 21
9.6642
  0
LINE
  8
0
 10
8.25
 20
9.6642
 11
4.58578
 21
6
  0
LINE
  8
0
 10
4.58578
 20
6
 11
-4.58578
 21
6
  0
LINE
  8
0
 10
-4.58578
 20
6
 11
-8.25
 21
9.6642
  0
LINE
  8
0
 10
-8.25
 20
9.6642
 11
-8.25
 21
13
  0
LINE
  8
0
 10
-8.25
 20
13
 11
-4
 21
13
  0
LINE
  8
0
 10
-4
 20
13
 11
-4
 21
15
  0
LINE
  8
0
 10
-4
 20
15
 11
-13
 21
15
  0
LINE
  8
0
 10
-13
 20
15
 11
-13.5176
 21
14.9318
  0
LINE
  8
0
 10
-13.5176
 20
14.9318
 11
-14
 21
14.732
  0
LINE
  8
0
 10
-14
 20
14.732
 11
-14.4142
 21
14.4142
  0
LINE
  8
0
 10
-14.4142
 20
14.4142
 11
-14.732
 21
14
  0
LINE
  8
0
 10
-14.732
 20
14
 11
-14.9318
 21
13.5176
  0
LINE
  8
0
 10
-14.9318
 20
13.5176
 11
-15
 21
13
  0
LINE
  8
0
 10
-15
 20
13
 11
-15
 21
4
  0
LINE
  8
0
 10
-15
 20
4
 11
-13
 21
4
  0
LINE
  8
0
 10
-13
 20
4
 11
-13
 21
8.25
  0
LINE
  8
0
 10
-13
 20
8.25
 11
-9.6642
 21
8.25
  0
LINE
  8
0
 10
-9.6642
 20
8.25
 11
-6
 21
4.58578
  0
LINE
  8
0
 10
-6
 20
4.58578
 11
-6
 21
-4.58578
  0
LINE
  8
0
 10
-6
 20
-4.58578
 11
-9.6642
 21
-8.25
  0
LINE
  8
0
 10
-9.6642
 20
-8.25
 11
-13
 21
-8.25
  0
LINE
  8
0
 10
-13
 20
-8.25
 11
-13
 21
-4
  0
LINE
  8
0
 10
-13
 20
-4
 11
-15
 21
-4
  0
LINE
  8
0
 10
-15
 20
-4
 11
-15
 21
-13
  0
LINE
  8
0
 10
-15
 20
-13
 11
-14.9318
 21
-13.5176
  0
LINE
  8
0
 10
-14.9318
 20
-13.5176
 11
-14.732
 21
-14
  0
LINE
  8
0
 10
-14.732
 20
-14
 11
-14.4142
 21
-14.4142
  0
LINE
  8
0
 10
-14.4142
 20
-14.4142
 11
-14
 21
-14.732
  0
LINE
  8
0
 10
-14
 20
-14.732
 11
-13.5176
 21
-14.9318
  0
LINE
  8
0
 10
-13.5176
 20
-14.9318
 11
-13
 21
-15
  0
LINE
  8
0
 10
-13
 20
-15
 11
-4
 21
-15
  0
LINE
  8
0
 10
-4
 20
-15
 11
-4
 21
-13
  0
LINE
  8
0
 10
-12.1435
 20
9.57155
 11
-12.65
 21
9.78134
  0
LINE
  8
0
 10
-12.65
 20
9.78134
 11
-13.0849
 21
10.1151
  0
LINE
  8
0
 10
-13.0849
 20
10.1151
 11
-13.4186
 21
10.55
  0
LINE
  8
0
 10
-13.4186
 20
10.55
 11
-13.6284
 21
11.0565
  0
LINE
  8
0
 10
-13.6284
 20
11.0565
 11
-13.7
 21
11.6
  0
LINE
  8
0
 10
-13.7
 20
11.6
 11
-13.6284
 21
12.1435
  0
LINE
  8
0
 10
-13.6284
 20
12.1435
 11
-13.4186
 21
12.65
  0
LINE
  8
0
 10
-13.4186
 20
12.65
 11
-13.0849
 21
13.0849
  0
LINE
  8
0
 10
-13.0849
 20
13.0849
 11
-12.65
 21
13.4186
  0
LINE
  8
0
 10
-12.65
 20
13.4186
 11
-12.1435
 21
13.6284
  0
LINE
  8
0
 10
-12.1435
 20
13.6284
 11
-11.6
 21
13.7
  0
LINE
  8
0
 10
-11.6
 20
13.7
 11
-11.0565
 21
13.6284
  0
LINE
  8
0
 10
-11.0565
 20
13.6284
 11
-10.55
 21
13.4186
  0
LINE
  8
0
 10
-10.55
 20
13.4186
 11
-10.1151
 21
13.0849
  0
LINE
  8
0
 10
-10.1151
 20
13.0849
 11
-9.78134
 21
12.65
  0
LINE
  8
0
 10
-9.78134
 20
12.65
 11
-9.57155
 21
12.1435
  0
LINE
  8
0
 10
-9.57155
 20
12.1435
 11
-9.5
 21
11.6
  0
LINE
  8
0
 10
-9.5
 20
11.6
 11
-9.57155
 21
11.0565
  0
LINE
  8
0
 10
-9.57155
 20
11.0565
 11
-9.78134
 21
10.55
  0
LINE
  8
0
 10
-9.78134
 20
10.55
 11
-10.1151
 21
10.1151
  0
LINE
  8
0
 10
-10.1151
 20
10.1151
 11
-10.55
 21
9.78134
  0
LINE
  8
0
 10
-10.55
 20
9.78134
 11
-11.0565
 21
9.57155
  0
LINE
  8
0
 10
-11.0565
 20
9.57155
 11
-11.6
 21
9.5
  0
LINE
  8
0
 10
-11.6
 20
9.5
 11
-12.1435
 21
9.57155
  0
LINE
  8
0
 10
11.0565
 20
9.57155
 11
10.55
 21
9.78134
  0
LINE
  8
0
 10
10.55
 20
9.78134
 11
10.1151
 21
10.1151
  0
LINE
  8
0
 10
10.1151
 20
10.1151
 11
9.78134
 21
10.55
  0
LINE
  8
0
 10
9.78134
 20
10.55
 11
9.57155
 21
11.0565
  0
LINE
  8
0
 10
9.57155
 20
11.0565
 11
9.5
 21
11.6
  0
LINE
  8
0
 10
9.5
 20
11.6
 11
9.57155
 21
12.1435
  0
LINE
  8
0
 10
9.57155
 20
12.1435
 11
9.78134
 21
12.65
  0
LINE
  8
0
 10
9.78134
 20
12.65
 11
10.1151
 21
13.0849
  0
LINE
  8
0
 10
10.1151
 20
13.0849
 11
10.55
 21
13.4186
  0
LINE
  8
0
 10
10.55
 20
13.4186
 11
11.0565
 21
13.6284
  0
LINE
  8
0
 10
11.0565
 20
13.6284
 11
11.6
 21
13.7
  0
LINE
  8
0
 10
11.6
 20
13.7
 11
12.1435
 21
13.6284
  0
LINE
  8
0
 10
12.1435
 20
13.6284
 11
12.65
 21
13.4186
  0
LINE
  8
0
 10
12.65
 20
13.4186
 11
13.0849
 21
13.0849
  0
LINE
  8
0
 10
13.0849
 20
13.0849
 11
13.4186
 21
12.65
  0
LINE
  8
0
 10
13.4186
 20
12.65
 11
13.6284
 21
12.1435
  0
LINE
  8
0
 10
13.6284
 20
12.1435
 11
13.7
 21
11.6
  0
LINE
  8
0
 10
13.7
 20
11.6
 11
13.6284
 21
11.0565
  0
LINE
  8
0
 10
13.6284
 20
11.0565
 11
13.4186
 21
10.55
  0
LINE
  8
0
 10
13.4186
 20
10.55
 11
13.0849
 21
10.1151
  0
LINE
  8
0
 10
13.0849
 20
10.1151
 11
12.65
 21
9.78134
  0
LINE
  8
0
 10
12.65
 20
9.78134
 11
12.1435
 21
9.57155
  0
LINE
  8
0
 10
12.1435
 20
9.57155
 11
11.6
 21
9.5
  0
LINE
  8
0
 10
11.6
 20
9.5
 11
11.0565
 21
9.57155
  0
LINE
  8
0
 10
-0.909592
 20
-3.27606
 11
-1.59258
 21
-3.00394
  0
LINE
  8
0
 10
-1.59258
 20
-3.00394
 11
-2.20111
 21
-2.59134
  0
LINE
  8
0
 10
-2.20111
 20
-2.59134
 11
-2.70671
 21
-2.05759
  0
LINE
  8
0
 10
-2.70671
 20
-2.05759
 11
-3.08575
 21
-1.42761
  0
LINE
  8
0
 10
-3.08575
 20
-1.42761
 11
-3.3205
 21
-0.730896
  0
LINE
  8
0
 10
-3.3205
 20
-0.730896
 11
-3.39999
 21
0
  0
LINE
  8
0
 10
-3.39999
 20
0
 11
-3.3205
 21
0.730896
  0
LINE
  8
0
 10
-3.3205
 20
0.730896
 11
-3.08575
 21
1.42761
  0
LINE
  8
0
 10
-3.08575
 20
1.42761
 11
-2.70671
 21
2.05759
  0
LINE
  8
0
 10
-2.70671
 20
2.05759
 11
-2.20111
 21
2.59134
  0
LINE
  8
0
 10
-2.20111
 20
2.59134
 11
-1.59258
 21
3.00394
  0
LINE
  8
0
 10
-1.59258
 20
3.00394
 11
-0.909592
 21
3.27606
  0
LINE
  8
0
 10
-0.909592
 20
3.27606
 11
-0.184067
 21
3.395
  0
LINE
  8
0
 10
-0.184067
 20
3.395
 11
0.550049
 21
3.35521
  0
LINE
  8
0
 10
0.550049
 20
3.35521
 11
1.25847
 21
3.15851
  0
LINE
  8
0
 10
1.25847
 20
3.15851
 11
1.90804
 21
2.81413
  0
LINE
  8
0
 10
1.90804
 20
2.81413
 11
2.46838
 21
2.33817
  0
LINE
  8
0
 10
2.46838
 20
2.33817
 11
2.9133
 21
1.75287
  0
LINE
  8
0
 10
2.9133
 20
1.75287
 11
3.22202
 21
1.08562
  0
LINE
  8
0
 10
3.22202
 20
1.08562
 11
3.38007
 21
0.367599
  0
LINE
  8
0
 10
3.38007
 20
0.367599
 11
3.38007
 21
-0.367599
  0
LINE
  8
0
 10
3.38007
 20
-0.367599
 11
3.22202
 21
-1.08562
  0
LINE
  8
0
 10
3.22202
 20
-1.08562
 11
2.9133
 21
-1.75287
  0
LINE
  8
0
 10
2.9133
 20
-1.75287
 11
2.46838
 21
-2.33817
  0
LINE
  8
0
 10
2.46838
 20
-2.33817
 11
1.90804
 21
-2.81413
  0
LINE
  8
0
 10
1.90804
 20
-2.81413
 11
1.25847
 21
-3.15851
  0
LINE
  8
0
 10
1.25847
 20
-3.15851
 11
0.550049
 21
-3.35521
  0
LINE
  8
0
 10
0.550049
 20
-3.35521
 11
-0.184067
 21
-3.395
  0
LINE
  8
0
 10
-0.184067
 20
-3.395
 11
-0.909592
 21
-3.27606
  0
LINE
  8
0
 10
-12.1435
 20
-13.6284
 11
-12.65
 21
-13.4186
  0
LINE
  8
0
 10
-12.65
 20
-13.4186
 11
-13.0849
 21
-13.0849
  0
LINE
  8
0
 10
-13.0849
 20
-13.0849
 11
-13.4186
 21
-12.65
  0
LINE
  8
0
 10
-13.4186
 20
-12.65
 11
-13.6284
 21
-12.1435
  0
LINE
  8
0
 10
-13.6284
 20
-12.1435
 11
-13.7
 21
-11.6
  0
LINE
  8
0
 10
-13.7
 20
-11.6
 11
-13.6284
 21
-11.0565
  0
LINE
  8
0
 10
-13.6284
 20
-11.0565
 11
-13.4186
 21
-10.55
  0
LINE
  8
0
 10
-13.4186
 20
-10.55
 11
-13.0849
 21
-10.1151
  0
LINE
  8
0
 10
-13.0849
 20
-10.1151
 11
-12.65
 21
-9.78134
  0
LINE
  8
0
 10
-12.65
 20
-9.78134
 11
-12.1435
 21
-9.57155
  0
LINE
  8
0
 10
-12.1435
 20
-9.57155
 11
-11.6
 21
-9.5
  0
LINE
  8
0
 10
-11.6
 20
-9.5
 11
-11.0565
 21
-9.57155
  0
LINE
  8
0
 10
-11.0565
 20
-9.57155
 11
-10.55
 21
-9.78134
  0
LINE
  8
0
 10
-10.55
 20
-9.78134
 11
-10.1151
 21
-10.1151
  0
LINE
  8
0
 10
-10.1151
 20
-10.1151
 11
-9.78134
 21
-10.55
  0
LINE
  8
0
 10
-9.78134
 20
-10.55
 11
-9.57155
 21
-11.0565
  0
LINE
  8
0
 10
-9.57155
 20
-11.0565
 11
-9.5
 21
-11.6
  0
LINE
  8
0
 10
-9.5
 20
-11.6
 11
-9.57155
 21
-12.1435
  0
LINE
  8
0
 10
-9.57155
 20
-12.1435
 11
-9.78134
 21
-12.65
  0
LINE
  8
0
 10
-9.78134
 20
-12.65
 11
-10.1151
 21
-13.0849
  0
LINE
  8
0
 10
-10.1151
 20
-13.0849
 11
-10.55
 21
-13.4186
  0
LINE
  8
0
 10
-10.55
 20
-13.4186
 11
-11.0565
 21
-13.6284
  0
LINE
  8
0
 10
-11.0565
 20
-13.6284
 11
-11.6
 21
-13.7
  0
LINE
  8
0
 10
-11.6
 20
-13.7
 11
-12.1435
 21
-13.6284
  0
LINE
  8
0
 10
11.0565
 20
-13.6284
 11
10.55
 21
-13.4186
  0
LINE
  8
0
 10
10.55
 20
-13.4186
 11
10.1151
 21
-13.0849
  0
LINE
  8
0
 10
10.1151
 20
-13.0849
 11
9.78134
 21
-12.65
  0
LINE
  8
0
 10
9.78134
 20
-12.65
 11
9.57155
 21
-12.1435
  0
LINE
  8
0
 10
9.57155
 20
-12.1435
 11
9.5
 21
-11.6
  0
LINE
  8
0
 10
9.5
 20
-11.6
 11
9.57155
 21
-11.0565
  0
LINE
  8
0
 10
9.57155
 20
-11.0565
 11
9.78134
 21
-10.55
  0
LINE
  8
0
 10
9.78134
 20
-10.55
 11
10.1151
 21
-10.1151
  0
LINE
  8
0
 10
10.1151
 20
-10.1151
 11
10.55
 21
-9.78134
  0
LINE
  8
0
 10
10.55
 20
-9.78134
 11
11.0565
 21
-9.57155
  0
LINE
  8
0
 10
11.0565
 20
-9.57155
 11
11.6
 21
-9.5
  0
LINE
  8
0
 10
11.6
 20
-9.5
 11
12.1435
 21
-9.57155
  0
LINE
  8
0
 10
12.1435
 20
-9.57155
 11
12.65
 21
-9.78134
  0
LINE
  8
0
 10
12.65
 20
-9.78134
 11
13.0849
 21
-10.1151
  0
LINE
  8
0
 10
13.0849
 20
-10.1151
 11
13.4186
 21
-10.55
  0
LINE
  8
0
 10
13.4186
 20
-10.55
 11
13.6284
 21
-11.0565
  0
LINE
  8
0
 10
13.6284
 20
-11.0565
 11
13.7
 21
-11.6
  0
LINE
  8
0
 10
13.7
 20
-11.6
 11
13.6284
 21
-12.1435
  0
LINE
  8
0
 10
13.6284
 20
-12.1435
 11
13.4186
 21
-12.65
  0
LINE
  8
0
 10
13.4186
 20
-12.65
 11
13.0849
 21
-13.0849
  0
LINE
  8
0
 10
13.0849
 20
-13.0849
 11
12.65
 21
-13.4186
  0
LINE
  8
0
 10
12.65
 20
-13.4186
 11
12.1435
 21
-13.6284
  0
LINE
  8
0
 10
12.1435
 20
-13.6284
 11
11.6
 21
-13.7
  0
LINE
  8
0
 10
11.6
 20
-13.7
 11
11.0565
 21
-13.6284
  0
ENDSEC
  0
SECTION
  2
OBJECTS
  0
DICTIONARY
  0
ENDSEC
  0
EOF
